<svg id="Layer_1" data-name="Layer 1" xmlns="http://www.w3.org/2000/svg" viewBox="0 0 891.65957 666.29507"><defs><style>.cls-1{font-size:55.76992px;stroke:#000;stroke-miterlimit:10;stroke-width:4px;font-family:FrutigerNeueW02-Book;}.cls-2{letter-spacing:-0.018em;}.cls-3{fill:#050606;}.cls-4{fill:#ce952a;}</style></defs><text class="cls-1" transform="translate(154.34707 502.85144)">Energy Solution G<tspan class="cls-2" x="456.07748" y="0">r</tspan><tspan x="475.8752" y="0">oup</tspan></text><polygon class="cls-3" points="191.027 211.471 311.619 211.471 311.619 185.81 155.175 185.81 155.175 425.714 311.619 425.714 311.619 400.053 191.352 400.053 191.027 211.471"/><rect class="cls-3" x="186.13775" y="287.26179" width="109.51121" height="25.66144"/><path d="M732.60593,236.3601c-47.93536-37.89423-149.14217-32.90471-155.39933,60.59725-6.65761,99.48575,80.08616,115.81245,128.99931,92.9935.02318-65.56275.02318-68.86552.02318-68.86552H652.365V295.24349h80.24093V405.278s-26.83459,20.46812-80.24093,20.43619c-50.25613-.03005-115.5864-37.96012-111.02344-129.923S650.47253,154.296,732.60593,207.941Z"/><path class="cls-4" d="M382.8491,414.07287c-25.843-16.57125-28.58169-27.19731-28.58169-27.19731,0,.71167,18.25236,16.27667,33.28215,21.44185,15.54565,5.34245,25.58283,7.56287,39.31293,7.14471,19.54963-.59539,30.14455-6.51087,39.47192-15.18252,9.331-8.66579,13.40823-23.36918,8.97821-38.01823-1.745-5.77033-7.10746-13.33442-18.64495-21.52108-6.25132-4.43575-19.54769-12.03573-31.08713-17.86179-12.74482-6.43464-25.90418-13.8029-34.1929-18.9903-7.97087-4.98847-17.26726-13.0799-22.96421-21.039a56.26849,56.26849,0,0,1-10.39983-31.85078c0-19.4691,6.793-34.18915,20.26972-45.71a71.54447,71.54447,0,0,1,54.94007-16.671c14.14019,1.565,27.676,5.98467,36.48422,10.95222-8.03331-2.85-23.18626-3.79871-33.03071-3.79871-14.51445,0-28.51606,5.79128-36.80565,13.1494-8.29591,7.36316-10.34187,18.1059-8.80819,26.591,4.06133,22.46936,29.13686,30.37411,44.44254,37.65188,16.80548,7.99093,31.9366,15.579,42.1218,21.39809a77.85805,77.85805,0,0,1,24.79634,22.47635c5.8296,8.31456,10.63943,23.74481,10.63943,36.80133,0,13.06322-.14527,21.92539-9.58262,36.86844-10.4051,16.47539-20.38567,21.823-29.96357,27.02933-10.86028,5.90336-30.17418,8.46344-46.23718,8.46344C410.44261,426.20015,392.848,420.48442,382.8491,414.07287Z"/><ellipse class="cls-4" cx="486.63234" cy="209.79647" rx="10.6289" ry="10.45804"/><path class="cls-4" d="M486.63235,181.09076c5.27568,2.74087,5.30319,8.1508-.00014,10.88231-5.30344-2.732-5.27519-8.14192.00014-10.88231Z"/><path class="cls-4" d="M488.29843,226.992c5.27576,2.74087,5.30317,8.15083-.00015,10.88238-5.30337-2.73209-5.27516-8.14191.00015-10.88238Z"/><path class="cls-4" d="M457.7767,209.48254c2.791-5.27714,8.27848-5.3048,11.06011.00014-2.78205,5.305-8.26961,5.27666-11.06011-.00014Z"/><path class="cls-4" d="M504.42782,209.48254c2.7911-5.2771,8.27846-5.30483,11.06017.00014-2.78209,5.3051-8.26956,5.27661-11.06017-.00014Z"/><path class="cls-4" d="M473.48348,234.75543c-3.41043-4.87591-.93059-9.70229,5.04-9.68681,3.43936,4.88082.90978,9.68128-5.04,9.68681Z"/><path class="cls-4" d="M496.66488,195.04285c-3.41048-4.87593-.93061-9.70229,5.04-9.68682,3.43932,4.88085.90978,9.68127-5.04,9.68682Z"/><path class="cls-4" d="M462.852,225.56445c-.65723-5.92558,3.85237-9.00868,9.11487-6.16394.68032,5.94362-3.86083,8.98028-9.11487,6.16394Z"/><path class="cls-4" d="M502.03311,200.91528c-.65724-5.9255,3.85245-9.00859,9.11487-6.16394.68037,5.94364-3.86082,8.98038-9.11487,6.16394Z"/><path class="cls-4" d="M502.80068,217.78369c4.85716-3.46189,9.75638-1.02529,9.84509,4.95892-4.8617,3.4909-9.73561,1.00414-9.84509-4.95892Z"/><path class="cls-4" d="M461.14785,196.725c4.6517-3.68538,9.56166-1.49445,9.84509,4.45381-4.65508,3.71427-9.54192,1.47255-9.84509-4.45381Z"/><path class="cls-4" d="M470.6155,186.407c5.90416-.76134,9.0392,3.67858,6.26465,8.96834-5.92188.78452-9.01109-3.68729-6.26465-8.96834Z"/><path class="cls-4" d="M497.03994,224.2348c5.90421-.76128,9.03922,3.67853,6.26465,8.96834-5.92188.7845-9.01108-3.6873-6.26465-8.96834Z"/><path class="cls-4" d="M354.26742,331.46387c5.93377,3.03524,5.96445,9.04655-.00016,12.07134-5.96481-3.02528-5.93313-9.03666.00016-12.07134Z"/><path class="cls-4" d="M338.2239,357.96661c-3.09066,5.93534-9.18836,5.9663-12.26854-.00016,3.08072-5.96655,9.17843-5.93472,12.26854.00016Z"/><path class="cls-4" d="M384.42758,357.96661c-3.09066,5.93534-9.18837,5.9663-12.26855-.00016,3.08073-5.96655,9.17844-5.93472,12.26855.00016Z"/><path class="cls-4" d="M374.29342,339.287c1.94925,6.38766-2.36479,10.63679-8.71507,8.49627-1.97825-6.40309,2.3796-10.6072,8.71507-8.49627Z"/><path class="cls-4" d="M334.15994,339.287c6.33617-2.11088,10.69333,2.0939,8.71484,8.4965-6.35073,2.14024-10.66423-2.1095-8.71484-8.4965Z"/><path class="cls-4" d="M374.29342,378.69684c-6.33618,2.11087-10.69339-2.09388-8.71484-8.49651,6.35076-2.14024,10.66418,2.10954,8.71484,8.49651Z"/><path class="cls-4" d="M334.15994,378.69684c-1.94933-6.38773,2.36479-10.63679,8.71507-8.49628,1.9782,6.40307-2.37961,10.60722-8.71507,8.49628Z"/><ellipse class="cls-4" cx="354.4247" cy="359.51423" rx="13.36957" ry="13.15465"/><rect class="cls-4" x="349.8633" y="370.20043" width="9.43735" height="17.00024" rx="1.69178"/></svg>